<?xml version="1.0" standalone="no"?> <!DOCTYPE svg PUBLIC "-//W3C//DTD SVG 1.0//EN" "http://www.w3.org/TR/2001/REC-SVG-20010904/DTD/svg10.dtd" > <svg xmlns="http://www.w3.org/2000/svg" width="100%" height="100%">
<defs >
<font horiz-adv-x="1194" ><font-face
    font-family="RaiLowercase"
    units-per-em="2048"
    panose-1="2 0 5 0 0 0 0 0 0 0"
    ascent="1793"
    descent="-476"
    alphabetic="0" />
<missing-glyph horiz-adv-x="1024" />
<glyph unicode=" " glyph-name="space" horiz-adv-x="351" />
<glyph unicode="!" glyph-name="exclam" horiz-adv-x="480" d="M420 287V0H69V287H420ZM69 1365H267Q420 1365 420 1162V430H187Q69 430 69 575V1365Z" />
<glyph unicode="&quot;" glyph-name="quotedbl" horiz-adv-x="838" d="M314 816H128V1365H314V816ZM709 816H523V1365H709V816Z" />
<glyph unicode="#" glyph-name="numbersign" horiz-adv-x="1338" d="M400 1297H630L576 952H843L898 1297H1129L1074 952H1300L1278 815H1052L1015 578H1241L1219 441H993L934 68H703L762 441H495L436 68H205L264 441H38L60 578H286L323 815H97L119 952H345L400
1297ZM822 815H554L516 578H784L822 815Z" />
<glyph unicode="$" glyph-name="dollar" horiz-adv-x="1424" d="M823 538V312H905Q1006 312 1006 398V452Q1006 538 902 538H823ZM618 1045H509Q421 1045 421 972V916Q421 850 517 850H618V1045ZM618 538H382Q70 538 70 822V1022Q70 1365 414 1365H618V1558H733Q821
1558 823 1365H1341L1342 1225Q1342 1045 1170 1045H823V850H1038Q1357 850 1357 530V330Q1357 0 1038 0H823V-155H687Q618 -155 618 -10V0H102V139Q102 312 265 312H618V538Z" />
<glyph unicode="%" glyph-name="percent" horiz-adv-x="1808" d="M447 1372Q809 1372 809 1026Q809 681 461 681Q81 681 81 1025Q81 1215 183 1300Q270 1372 447 1372ZM438 1224Q350 1224 314 1164Q282 1111 282 1033Q282 942 311 891Q347 829 452 829Q545 829
582 896Q608 942 608 1032Q608 1224 438 1224ZM1089 1365H1263L711 0H537L1089 1365ZM1365 683Q1727 683 1727 337Q1727 -8 1379 -8Q999 -8 999 336Q999 527 1101 611Q1188 683 1365 683ZM1356 535Q1200 535 1200 343Q1200 253 1229 202Q1266 140 1371 140Q1463
140 1500 207Q1526 253 1526 343Q1526 535 1356 535Z" />
<glyph unicode="&amp;" glyph-name="ampersand" horiz-adv-x="1499" d="M357 0Q37 0 37 330V470Q37 635 185 683Q37 730 37 895V1035Q37 1356 339 1365H792V1044H489Q388 1044 388 958V926Q388 840 493 840H960V1365H1147Q1292 1365 1292 1162V840H1462V525H1292V0H357ZM960
525H493Q388 525 388 439V402Q388 316 489 316H960V525Z" />
<glyph unicode="&apos;" glyph-name="quotesingle" horiz-adv-x="443" d="M314 816H128V1365H314V816Z" />
<glyph unicode="(" glyph-name="parenleft" horiz-adv-x="871" d="M802 1561V1334Q561 1321 470 1149Q383 985 383 658Q383 310 512 163Q582 83 700 55Q737 46 802 40V-188Q603 -174 489 -127Q89 38 89 673Q89 1162 335 1395Q469 1522 652 1548Q706 1556 802 1561Z" />
<glyph unicode=")" glyph-name="parenright" horiz-adv-x="871" d="M68 1561Q270 1550 364 1508Q576 1416 685 1184Q781 978 781 673Q781 181 539 -30Q418 -134 228 -169Q161 -181 68 -188V40Q180 51 247 81Q487 189 487 658Q487 985 400 1149Q309 1321 68 1334V1561Z" />
<glyph unicode="*" glyph-name="asterisk" horiz-adv-x="3369" d="M163 0Q110 0 80 51T50 173V1365H872Q1068 1365 1206 1217T1345 858Q1345 648 1207 500Q1135 424 1049 387L1291 1H888L515 628H768Q856 628 918 689T981 838Q981 924 919 985T768 1047H391V0H163ZM2374
1225L3000 0H2632L2529 203H1839L1994 492H2385L2117 1017L1598 0H1404Q1356 0 1323 31T1289 115Q1289 167 1322 224L1924 1365H2159Q2234 1365 2298 1318Q2351 1279 2374 1225ZM2998 1365H3185Q3330 1365 3330 1162V0H3110Q2998 0 2998 145V1365Z" />
<glyph unicode="+" glyph-name="plus" horiz-adv-x="1138" d="M723 840H1051V642Q1051 525 896 525H723V197H525Q408 197 408 352V525H80V723Q80 840 235 840H408V1168H606Q723 1168 723 1013V840Z" />
<glyph unicode="," glyph-name="comma" horiz-adv-x="479" d="M123 -147L194 0H66V346H417V38L314 -147H123Z" />
<glyph unicode="-" glyph-name="hyphen" horiz-adv-x="1138" d="M1051 840V642Q1051 525 896 525H80V723Q80 840 235 840H1051Z" />
<glyph unicode="." glyph-name="period" horiz-adv-x="480" d="M417 346V0H66V346H417Z" />
<glyph unicode="/" glyph-name="slash" horiz-adv-x="1092" d="M171 -188H-85L920 1553H1176L171 -188Z" />
<glyph unicode="0" glyph-name="zero" horiz-adv-x="1480" d="M747 1374Q945 1374 1100 1304Q1283 1220 1356 1025Q1414 871 1414 669Q1414 455 1342 302Q1256 118 1074 46Q937 -8 760 -8Q532 -8 360 78Q188 165 113 372Q66 503 66 676Q66 1065 260 1232Q427 1374
747 1374ZM738 1056Q635 1056 557 1018Q465 974 431 873Q407 799 407 685Q407 492 488 400Q568 310 743 310Q936 310 1014 430Q1073 519 1073 687Q1073 856 1008 947Q931 1056 738 1056Z" />
<glyph unicode="1" glyph-name="one" horiz-adv-x="627" d="M440 1365Q585 1365 585 1162V0H365Q253 0 253 145V1034H183Q38 1034 38 1146V1365H440Z" />
<glyph unicode="2" glyph-name="two" horiz-adv-x="1424" d="M1357 1365T1357 1022V822Q1357 538 1045 538H526Q421 538 421 452V312H1162Q1326 312 1326 139V0H70V530Q70 850 390 850H910Q1006 850 1006 916V972Q1006 1045 918 1045H257Q86 1045 86 1225V1365H1014Q1357
1365 1357 1022Z" />
<glyph unicode="3" glyph-name="three" horiz-adv-x="1277" d="M234 525V840H783Q888 840 888 926V958Q888 1044 787 1044H34V1365H937Q1239 1356 1239 1035V895Q1239 730 1091 683Q1239 635 1239 470V330Q1239 0 919 0H155Q34 0 34 141V316H787Q888 316 888 402V439Q888
525 783 525H234Z" />
<glyph unicode="4" glyph-name="four" horiz-adv-x="1506" d="M207 519Q84 519 84 681V1365H274Q417 1365 417 1242V847H1099V1365H1293Q1427 1365 1427 1214V0H1217Q1099 0 1099 133V519H207Z" />
<glyph unicode="5" glyph-name="five" horiz-adv-x="1424" d="M1014 0H85V140Q85 320 257 320H918Q1006 320 1006 393V449Q1006 515 910 515H70V1365H1326V1226Q1326 1053 1162 1053H421V827H1045Q1357 827 1357 543V343Q1357 0 1014 0Z" />
<glyph unicode="6" glyph-name="six" horiz-adv-x="1424" d="M70 1022Q70 1365 413 1365H1341V1225Q1341 1045 1170 1045H509Q421 1045 421 972V826Q461 850 537 850H1037Q1357 850 1357 530V330Q1357 0 1037 0H401Q70 0 70 336V1022ZM526 538Q421 538 421 452V398Q421
312 522 312H905Q1006 312 1006 398V452Q1006 538 901 538H526Z" />
<glyph unicode="7" glyph-name="seven" horiz-adv-x="1366" d="M949 0V958Q949 1044 842 1044H216Q50 1044 50 1199V1365H987Q1114 1365 1205 1274T1297 1017V143Q1297 0 1159 0H949Z" />
<glyph unicode="8" glyph-name="eight" horiz-adv-x="1277" d="M497 525Q392 525 392 439V402Q392 316 493 316H786Q887 316 887 402V439Q887 525 782 525H497ZM936 1365Q1238 1356 1238 1035V895Q1238 730 1090 683Q1238 635 1238 470V330Q1238 0 918 0H361Q41
0 41 330V470Q41 635 189 683Q41 730 41 895V1035Q41 1356 343 1365H936ZM782 840Q887 840 887 926V958Q887 1044 786 1044H493Q392 1044 392 958V926Q392 840 497 840H782Z" />
<glyph unicode="9" glyph-name="nine" horiz-adv-x="1424" d="M1357 343Q1357 0 1014 0H86V140Q86 320 257 320H918Q1006 320 1006 393V539Q966 515 890 515H390Q70 515 70 835V1035Q70 1365 390 1365H1026Q1357 1365 1357 1029V343ZM901 827Q1006 827 1006 913V967Q1006
1053 905 1053H522Q421 1053 421 967V913Q421 827 526 827H901Z" />
<glyph unicode=":" glyph-name="colon" horiz-adv-x="480" d="M417 346V0H66V346H417ZM417 876V530H66V876H417Z" />
<glyph unicode=";" glyph-name="semicolon" horiz-adv-x="480" d="M417 876V530H66V876H417ZM123 -147L194 0H66V346H417V38L314 -147H123Z" />
<glyph unicode="&lt;" glyph-name="less" horiz-adv-x="1024" d="M955 1292V977L403 690L955 402V89L68 559V824L955 1292Z" />
<glyph unicode="=" glyph-name="equal" horiz-adv-x="1138" d="M1051 1051V853Q1051 736 896 736H80V934Q80 1051 235 1051H1051ZM1051 611V413Q1051 296 896 296H80V494Q80 611 235 611H1051Z" />
<glyph unicode="&gt;" glyph-name="greater" horiz-adv-x="1024" d="M69 89V404L621 691L70 980V1292L956 823V558L69 89Z" />
<glyph unicode="?" glyph-name="question" horiz-adv-x="1424" d="M1357 1365T1357 1022V822Q1357 538 1045 538H526Q421 538 421 452V382H70V530Q70 850 390 850H910Q1006 850 1006 916V972Q1006 1045 918 1045H257Q86 1045 86 1225V1365H1014Q1357 1365 1357
1022ZM421 287V0H70V287H421Z" />
<glyph unicode="@" glyph-name="at" horiz-adv-x="1624" d="M1204 149V0H742Q562 0 449 33Q271 85 169 271Q68 455 68 683Q68 911 169 1095Q265 1271 449 1336Q590 1386 832 1386Q1179 1386 1347 1266Q1444 1198 1499 1080Q1555 960 1555 828Q1555 673 1479 537Q1410
412 1291 350Q1257 333 1195 312H760Q623 312 577 326Q510 347 465 407Q415 473 415 580Q415 744 483 864Q546 977 673 1024Q752 1054 885 1054H1190L1105 452H1191Q1234 483 1258 521Q1341 652 1341 822Q1341 956 1283 1059Q1221 1171 1081 1209Q975 1238 832
1238Q538 1238 426 1120Q361 1051 324 919Q292 804 292 683Q292 516 350 378Q421 211 564 171Q644 149 805 149H1204ZM937 887H905Q762 887 710 817Q654 744 654 624Q654 535 712 502Q755 478 837 478H879L937 887Z" />
<glyph unicode="A" glyph-name="A" horiz-adv-x="1768" d="M1114 1225L1740 0H1372L1269 203H579L734 492H1125L857 1017L338 0H144Q96 0 63 31T29 115Q29 167 62 224L664 1365H899Q974 1365 1038 1318Q1091 1279 1114 1225Z" />
<glyph unicode="B" glyph-name="B" horiz-adv-x="1277" d="M366 525V316H787Q888 316 888 402V439Q888 525 783 525H366ZM1091 683Q1239 635 1239 470V330Q1239 0 919 0H155Q34 0 34 141V1365H937Q1239 1356 1239 1035V895Q1239 730 1091 683ZM783 840Q888 840
888 926V958Q888 1044 787 1044H366V840H783Z" />
<glyph unicode="C" glyph-name="C" horiz-adv-x="1366" d="M398 407Q398 321 485 321H1131Q1297 321 1297 166V0H370Q233 0 142 111T50 358V1021Q50 1164 149 1264T388 1365H1308V1231Q1308 1055 1158 1055H488Q398 1055 398 974V407Z" />
<glyph unicode="D" glyph-name="D" horiz-adv-x="1407" d="M415 1047V318H672Q841 318 907 388Q941 425 963 486Q996 576 996 682Q996 816 947 914Q904 999 819 1029Q766 1047 672 1047H415ZM74 1365H653Q870 1365 989 1322Q1144 1266 1221 1153Q1285 1061 1315
899Q1337 785 1337 680Q1337 495 1284 331Q1231 163 1107 84Q997 14 842 5Q762 0 653 0H246Q74 0 74 185V1365Z" />
<glyph unicode="E" glyph-name="E" horiz-adv-x="1226" d="M47 1365H1014Q1180 1365 1180 1197V1044H379V840H970V525H379V316H1000Q1180 316 1180 148V0H178Q47 0 47 161V1365Z" />
<glyph unicode="F" glyph-name="F" horiz-adv-x="1226" d="M379 0T218 0H47V1365H1014Q1180 1365 1180 1197V1044H379V840H970V525H379V163Q379 0 218 0Z" />
<glyph unicode="G" glyph-name="G" horiz-adv-x="1366" d="M965 321V524H622V743Q622 855 767 855H1297V0H370Q233 0 142 111T50 358V1021Q50 1164 149 1264T388 1365H1308V1231Q1308 1055 1158 1055H488Q398 1055 398 974V407Q398 321 495 321H965Z" />
<glyph unicode="H" glyph-name="H" horiz-adv-x="1506" d="M417 519V0H207Q84 0 84 162V1365H274Q417 1365 417 1242V847H1099V1365H1293Q1427 1365 1427 1214V0H1217Q1099 0 1099 133V519H417Z" />
<glyph unicode="I" glyph-name="I" horiz-adv-x="484" d="M82 1365H269Q414 1365 414 1162V0H194Q82 0 82 145V1365Z" />
<glyph unicode="J" glyph-name="J" horiz-adv-x="1366" d="M1159 1365Q1297 1365 1297 1222V348Q1297 182 1206 91T987 0H50V166Q50 321 216 321H842Q949 321 949 407V1365H1159Z" />
<glyph unicode="K" glyph-name="K" horiz-adv-x="1377" d="M428 485L376 431V0H156Q44 0 44 145V1365H231Q376 1365 376 1162V880L428 933L852 1365H1290L648 709L1342 0H904L428 485Z" />
<glyph unicode="L" glyph-name="L" horiz-adv-x="1155" d="M401 1365V407Q401 321 488 321H934Q1100 321 1100 166V0H363Q236 0 145 91T53 348V1365H401Z" />
<glyph unicode="M" glyph-name="M" horiz-adv-x="1822" d="M1449 771L1085 118Q1014 0 884 0Q745 0 657 177L373 680V0H153Q107 0 74 49T41 166V1365H266Q393 1365 456 1231L887 439L1318 1230Q1350 1287 1386 1326T1476 1365H1625Q1739 1365 1770 1269Q1781 1210
1781 1135V0H1555Q1511 0 1480 41T1449 143V771Z" />
<glyph unicode="N" glyph-name="N" horiz-adv-x="1506" d="M371 1365T423 1306L1099 553V1365H1293Q1427 1365 1427 1214V0H1217Q1160 0 1116 48L417 806V0H207Q84 0 84 162V1365H274Q371 1365 423 1306Z" />
<glyph unicode="O" glyph-name="O" horiz-adv-x="1480" d="M747 1374Q945 1374 1100 1304Q1283 1220 1356 1025Q1414 871 1414 669Q1414 455 1342 302Q1256 118 1074 46Q937 -8 760 -8Q532 -8 360 78Q188 165 113 372Q66 503 66 676Q66 1065 260 1232Q427 1374
747 1374ZM738 1056Q635 1056 557 1018Q465 974 431 873Q407 799 407 685Q407 492 488 400Q568 310 743 310Q936 310 1014 430Q1073 519 1073 687Q1073 856 1008 947Q931 1056 738 1056Z" />
<glyph unicode="P" glyph-name="P" horiz-adv-x="1464" d="M835 310H431V0H203Q150 0 120 51T90 173V1365H912Q1108 1365 1246 1217T1385 858Q1385 648 1237 479T835 310ZM431 628H808Q896 628 958 689T1021 838Q1021 924 959 985T808 1047H431V628Z" />
<glyph unicode="Q" glyph-name="Q" horiz-adv-x="1633" d="M708 1056Q605 1056 527 1018Q435 974 401 873Q377 799 377 685Q377 492 458 400Q538 310 713 310Q906 310 984 430Q1043 519 1043 687Q1043 856 978 947Q901 1056 708 1056ZM730 -8Q502 -8 330 78Q158
165 83 372Q36 503 36 676Q36 1065 230 1232Q397 1374 717 1374Q915 1374 1070 1304Q1253 1220 1326 1025Q1384 871 1384 669Q1384 469 1321 323H1382Q1585 323 1585 179V-8H730Z" />
<glyph unicode="R" glyph-name="R" horiz-adv-x="1464" d="M203 0Q150 0 120 51T90 173V1365H912Q1108 1365 1246 1217T1385 858Q1385 648 1247 500Q1175 424 1089 387L1331 1H928L555 628H808Q896 628 958 689T1021 838Q1021 924 959 985T808 1047H431V0H203Z" />
<glyph unicode="S" glyph-name="S" horiz-adv-x="1424" d="M414 1365H1341L1342 1225Q1342 1045 1170 1045H509Q421 1045 421 972V916Q421 850 517 850H1038Q1357 850 1357 530V330Q1357 0 1038 0H102V139Q102 312 265 312H905Q1006 312 1006 398V452Q1006 538
902 538H382Q70 538 70 822V1022Q70 1365 414 1365Z" />
<glyph unicode="T" glyph-name="T" horiz-adv-x="1168" d="M42 1365H951Q1129 1365 1129 1241V1032H740V0H538Q414 0 414 178V1032H197Q42 1032 42 1125V1365Z" />
<glyph unicode="U" glyph-name="U" horiz-adv-x="1430" d="M1342 1162V561Q1342 291 1172 140T686 -11Q390 -11 240 144T90 540V1365H286Q431 1365 431 1172V636Q431 539 446 488Q474 391 550 349T721 307Q820 307 900 349T996 519Q1001 565 1001 636V1365H1197Q1342
1365 1342 1162Z" />
<glyph unicode="V" glyph-name="V" horiz-adv-x="1768" d="M655 140L29 1365H397L912 348L1431 1365H1625Q1673 1365 1706 1334T1740 1250Q1740 1198 1707 1141L1105 0H870Q795 0 732 47Q678 86 655 140Z" />
<glyph unicode="W" glyph-name="W" horiz-adv-x="2459" d="M1234 298L1153 140Q1130 86 1077 47Q1013 0 938 0H703L101 1141Q68 1198 68 1250Q68 1303 101 1334T183 1365H377L896 348L1051 654L688 1365H1056L1234 1014L1411 1365H1779L1416 654L1571 348L2090
1365H2284Q2332 1365 2365 1334T2399 1250Q2399 1198 2366 1141L1764 0H1529Q1454 0 1391 47Q1337 86 1314 140L1234 298Z" />
<glyph unicode="X" glyph-name="X" horiz-adv-x="1394" d="M502 678L89 1365H481L701 1005L920 1365H1312L899 678L1312 1H909L701 348L492 1H89L502 678Z" />
<glyph unicode="Y" glyph-name="Y" horiz-adv-x="1373" d="M821 499V0H601Q489 0 489 145V551L5 1365H400L669 872L938 1365H1333L821 499Z" />
<glyph unicode="Z" glyph-name="Z" horiz-adv-x="1428" d="M1389 1079T1330 1026L577 327H1389V134Q1389 0 1238 0H24V210Q24 265 72 311L830 1032H24V1242Q24 1365 186 1365H1389V1175Q1389 1079 1330 1026Z" />
<glyph unicode="[" glyph-name="bracketleft" horiz-adv-x="722" d="M653 1553V1335H583Q470 1335 438 1308Q416 1288 412 1243Q409 1222 409 1176V189Q410 121 416 95Q426 51 475 39Q510 30 583 30H653V-188H462Q332 -187 272 -169Q178 -138 146 -55Q125 -2 124
111V1254Q125 1367 146 1420Q178 1503 272 1534Q332 1552 462 1553H653Z" />
<glyph unicode="\" glyph-name="backslash" horiz-adv-x="1092" d="M920 -188L-85 1553H171L1176 -188H920Z" />
<glyph unicode="]" glyph-name="bracketright" horiz-adv-x="722" d="M69 1553H261Q390 1552 450 1534Q544 1503 576 1420Q598 1366 598 1254V111Q598 -1 576 -55Q544 -138 450 -169Q390 -187 261 -188H69V30H139Q252 30 283 57Q306 77 310 122Q313 143 313 189V1176Q312
1244 306 1270Q296 1314 247 1327Q212 1335 139 1335H69V1553Z" />
<glyph unicode="^" glyph-name="asciicircum" horiz-adv-x="1024" d="M309 714H29L337 1373H688L995 714H716L512 1159L309 714Z" />
<glyph unicode="_" glyph-name="underscore" horiz-adv-x="1024" d="M0 -79H1024V-303H0V-79Z" />
<glyph unicode="`" glyph-name="grave" horiz-adv-x="1024" d="M198 1292H440L628 1025H452L198 1292Z" />
<glyph unicode="a" glyph-name="a" horiz-adv-x="1177" d="M1140 735Q1140 1027 848 1027H57V908Q57 754 202 754H766Q841 754 841 692V670Q807 690 742 690H316Q43 690 43 418V281Q43 0 316 0H858Q1140 0 1140 286V735ZM751 424Q841 424 841 351V339Q841 266
755 266H428Q342 266 342 339V351Q342 424 432 424H751Z" />
<glyph unicode="b" glyph-name="b" horiz-adv-x="1304" d="M526 718Q421 718 421 632V398Q421 312 522 312H795Q896 312 896 398V632Q896 718 791 718H526ZM421 1152V1006Q461 1030 537 1030H927Q1247 1030 1247 710V330Q1247 0 927 0H401Q70 0 70 336V1022H72V1365H259Q422
1363 422 1160L421 1152Z" />
<glyph unicode="c" glyph-name="c" horiz-adv-x="1088" d="M389 383Q389 304 469 304H882Q1034 304 1034 162V0H344Q218 0 134 102T50 328V707Q50 838 141 930T360 1022H1044V889Q1044 728 906 728H472Q389 728 389 653V383Z" />
<glyph unicode="d" glyph-name="d" horiz-adv-x="1254" d="M764 718Q869 718 869 632V398Q869 312 768 312H495Q394 312 394 398V632Q394 718 499 718H764ZM869 1152V1006Q829 1030 753 1030H363Q43 1030 43 710V330Q43 0 363 0H889Q1220 0 1220 336V1022H1218V1365H1031Q868
1363 868 1160L869 1152Z" />
<glyph unicode="e" glyph-name="e" horiz-adv-x="1184" d="M42 295Q42 3 334 3H1125V122Q1125 276 980 276H416Q341 276 341 338V360Q375 340 440 340H866Q1139 340 1139 612V749Q1139 1030 866 1030H324Q42 1030 42 744V295ZM431 606Q341 606 341 679V691Q341
764 427 764H754Q840 764 840 691V679Q840 606 750 606H431Z" />
<glyph unicode="f" glyph-name="f" horiz-adv-x="712" d="M379 0T218 0H47V1083Q47 1365 331 1365H514Q680 1365 680 1197V1044H379V980H570V665H379V163Q379 0 218 0Z" />
<glyph unicode="g" glyph-name="g" horiz-adv-x="1352" d="M1297 -77Q1297 -420 954 -420H86V-280Q86 -100 257 -100H858Q946 -100 946 -27V19Q906 -5 830 -5H390Q70 -5 70 315V695Q70 1025 390 1025H966Q1297 1025 1297 689V-77ZM841 307Q946 307 946 393V627Q946
713 845 713H522Q421 713 421 627V393Q421 307 526 307H841Z" />
<glyph unicode="h" glyph-name="h" horiz-adv-x="1307" d="M414 704V0H194Q82 0 82 145V1365H269Q414 1365 414 1162V1025H947Q1074 1025 1165 934T1257 677V143Q1257 0 1119 0H909V618Q909 704 802 704H414Z" />
<glyph unicode="i" glyph-name="i" horiz-adv-x="511" d="M80 1078T80 1221T255 1365T431 1222T256 1078ZM431 0H233Q80 0 80 203V1025H313Q431 1025 431 880V0Z" />
<glyph unicode="j" glyph-name="j" horiz-adv-x="510" d="M296 1024Q434 1024 434 881V7Q434 -159 343 -250T124 -341H-213V-175Q-213 -20 -47 -20H-21Q86 -20 86 66V1024H296ZM80 1078T80 1221T255 1365T431 1222T256 1078Z" />
<glyph unicode="k" glyph-name="k" d="M428 295L376 241V0H156Q44 0 44 145V1365H231Q376 1365 376 1162V690L428 743L705 1024H1143L648 519L1162 -1H724L428 295Z" />
<glyph unicode="l" glyph-name="l" horiz-adv-x="477" d="M82 1365H264Q406 1365 406 1162V0H191Q82 0 82 145V1365Z" />
<glyph unicode="m" glyph-name="m" horiz-adv-x="1947" d="M1146 704Q1147 691 1147 677V143Q1147 0 1009 0H799V618Q799 704 692 704H414V0H194Q82 0 82 145V1025H1547Q1674 1025 1765 934T1857 677V143Q1857 0 1719 0H1509V618Q1509 704 1402 704H1146Z" />
<glyph unicode="n" glyph-name="n" horiz-adv-x="1309" d="M414 704V0H194Q82 0 82 145V1025H414H907Q1034 1025 1125 934T1217 677V143Q1217 0 1079 0H869V618Q869 704 762 704H414Z" />
<glyph unicode="o" glyph-name="o" horiz-adv-x="1087" d="M551 1027Q699 1027 815 975Q952 912 1007 766Q1051 650 1051 499Q1051 339 997 224Q932 86 796 32Q693 -8 561 -8Q390 -8 261 56Q132 122 76 277Q41 375 41 504Q41 796 186 921Q311 1027 551 1027ZM544
747Q479 747 429 723Q371 695 349 630Q334 583 334 511Q334 388 385 329Q436 272 548 272Q670 272 720 348Q758 405 758 512Q758 620 716 678Q667 747 544 747Z" />
<glyph unicode="p" glyph-name="p" horiz-adv-x="1340" d="M735 0H431V-420H203Q150 -420 120 -369T90 -247V1015H812Q1008 1015 1146 867T1285 508T1137 149T735 0ZM431 318H708Q796 318 858 359T921 487T859 635T708 697H431V318Z" />
<glyph unicode="q" glyph-name="q" horiz-adv-x="1275" d="M761 306Q866 306 866 392V626Q866 712 765 712H492Q391 712 391 626V392Q391 306 496 306H761ZM866 -128V18Q826 -6 750 -6H360Q40 -6 40 314V694Q40 1024 360 1024H886Q1217 1024 1217 688V2H1215V-341H1028Q865
-339 865 -136L866 -128Z" />
<glyph unicode="r" glyph-name="r" horiz-adv-x="728" d="M379 0T218 0H47V743Q47 1025 331 1025H514Q680 1025 680 857V704H379V163Q379 0 218 0Z" />
<glyph unicode="s" glyph-name="s" horiz-adv-x="1213" d="M386 1024H1127L1128 895Q1128 730 970 730H473Q392 730 392 691T481 652H849Q1142 652 1142 358V303Q1142 0 849 0H99V128Q99 287 249 287H727Q820 287 820 326T724 366H357Q70 366 70 626V709Q70 1024
386 1024Z" />
<glyph unicode="t" glyph-name="t" horiz-adv-x="728" d="M379 1260T218 1260H47V278Q47 -5 331 -5H514Q680 -5 680 163V316H379V710H570V1025H379V1097Q379 1260 218 1260Z" />
<glyph unicode="u" glyph-name="u" horiz-adv-x="1267" d="M858 320V1024H1078Q1190 1024 1190 879V-1H858H365Q238 -1 147 90T55 347V881Q55 1024 193 1024H403V406Q403 320 510 320H858Z" />
<glyph unicode="v" glyph-name="v" horiz-adv-x="1431" d="M485 140L39 1024H407L742 348L1081 1027H1275Q1323 1027 1356 996T1390 912Q1390 860 1357 803L935 0H700Q625 0 562 47Q508 86 485 140Z" />
<glyph unicode="w" glyph-name="w" horiz-adv-x="1744" d="M884 596L723 0H488Q413 0 350 47Q296 86 273 140L27 1024H395L530 348L699 1024H1075L1230 348L1399 1027H1593Q1641 1027 1674 996T1708 912Q1708 860 1675 763L1423 0H1188Q1113 0 1050 47Q996 86
973 140L884 596Z" />
<glyph unicode="x" glyph-name="x" horiz-adv-x="1245" d="M446 509L61 1024H426L631 754L835 1024H1200L815 509L1200 1H825L631 261L436 1H61L446 509Z" />
<glyph unicode="y" glyph-name="y" horiz-adv-x="1419" d="M553 -1L39 1024H407L742 349L753 371L1081 1027H1275Q1323 1027 1356 996T1390 912Q1390 860 1357 803L691 -476H497Q449 -476 416 -445T382 -361Q382 -309 415 -252L553 -1Z" />
<glyph unicode="z" glyph-name="z" horiz-adv-x="1123" d="M1050 760T995 710L539 302H1075V124Q1075 0 934 0H24V194Q24 245 69 288L529 716H19V910Q19 1024 170 1024H1050V848Q1050 760 995 710Z" />
<glyph unicode="{" glyph-name="braceleft" horiz-adv-x="722" d="M653 1553V1335H583Q470 1335 438 1308Q416 1288 412 1243Q409 1222 409 1176V189Q410 121 416 95Q426 51 475 39Q510 30 583 30H653V-188H462Q332 -187 272 -169Q178 -138 146 -55Q125 -2 124
111V1254Q125 1367 146 1420Q178 1503 272 1534Q332 1552 462 1553H653Z" />
<glyph unicode="|" glyph-name="bar" horiz-adv-x="2244" d="M382 0T221 0H50V743Q50 1025 334 1025H517Q683 1025 683 857V704H382V163Q382 0 221 0ZM1793 735Q1793 1027 1501 1027H710V908Q710 754 855 754H1419Q1494 754 1494 692V670Q1460 690 1395 690H969Q696
690 696 418V281Q696 0 969 0H1511Q1793 0 1793 286V735ZM1404 424Q1494 424 1494 351V339Q1494 266 1408 266H1081Q995 266 995 339V351Q995 424 1085 424H1404ZM1823 1078T1823 1221T1998 1365T2174 1222T1999 1078ZM2174 0H1976Q1823 0 1823 203V1025H2056Q2174
1025 2174 880V0Z" />
<glyph unicode="}" glyph-name="braceright" horiz-adv-x="722" d="M69 1553H261Q390 1552 450 1534Q544 1503 576 1420Q598 1366 598 1254V111Q598 -1 576 -55Q544 -138 450 -169Q390 -187 261 -188H69V30H139Q252 30 283 57Q306 77 310 122Q313 143 313 189V1176Q312
1244 306 1270Q296 1314 247 1327Q212 1335 139 1335H69V1553Z" />
<glyph unicode="~" glyph-name="asciitilde" horiz-adv-x="1014" d="M923 878V722Q860 650 801 625T685 599Q625 599 508 647T331 696Q280 696 224 668T94 556V712Q158 785 217 811T331 837Q395 837 512 788T685 738Q737 738 793 766T923 878Z" />
</font>
</defs>
</svg>
